<?xml version="1.0" encoding="UTF-8" standalone="no"?>
<!DOCTYPE svg PUBLIC "-//W3C//DTD SVG 1.1//EN"
 "http://www.w3.org/Graphics/SVG/1.1/DTD/svg11.dtd">
<!-- Generated by graphviz version 2.36.0 (20140111.2315)
 -->
<!-- Title: G Pages: 1 -->
<svg width="622pt" height="1162pt"
 viewBox="0.00 0.00 622.00 1162.00" xmlns="http://www.w3.org/2000/svg" xmlns:xlink="http://www.w3.org/1999/xlink">
<g id="graph0" class="graph" transform="scale(1 1) rotate(0) translate(4 1158)">
<title>G</title>
<polygon fill="white" stroke="none" points="-4,4 -4,-1158 618,-1158 618,4 -4,4"/>
<!-- n1 -->
<g id="node1" class="node"><title>n1</title>
<g id="a_node1"><a xlink:title="[[C]]:&#45;1_">
<ellipse fill="none" stroke="black" cx="212" cy="-180" rx="96.3112" ry="48.1667"/>
<text text-anchor="middle" x="212" y="-198.8" font-family="Times,serif" font-size="14.00">Node1</text>
<text text-anchor="start" x="151.5" y="-183.8" font-family="Times,serif" font-size="14.00">input = {Tensor[1]}</text>
<text text-anchor="start" x="151.5" y="-168.8" font-family="Times,serif" font-size="14.00">module = nn.Sigmoid</text>
<text text-anchor="middle" x="212" y="-153.8" font-family="Times,serif" font-size="14.00">reverseMap = {}</text>
</a>
</g>
</g>
<!-- n2 -->
<g id="node2" class="node"><title>n2</title>
<g id="a_node2"><a xlink:title="[[C]]:&#45;1_">
<ellipse fill="none" stroke="black" cx="314" cy="-48" rx="130.162" ry="48.1667"/>
<text text-anchor="middle" x="314" y="-66.8" font-family="Times,serif" font-size="14.00">Node2</text>
<text text-anchor="start" x="230" y="-51.8" font-family="Times,serif" font-size="14.00">input = {Tensor[1],Tensor[1]}</text>
<text text-anchor="start" x="230" y="-36.8" font-family="Times,serif" font-size="14.00">mapindex = {Node1,Node3}</text>
<text text-anchor="middle" x="314" y="-21.8" font-family="Times,serif" font-size="14.00">reverseMap = {}</text>
</a>
</g>
</g>
<!-- n1&#45;&gt;n2 -->
<g id="edge1" class="edge"><title>n1&#45;&gt;n2</title>
<path fill="none" stroke="black" d="M246.533,-134.988C254.73,-124.54 263.564,-113.281 272.052,-102.463"/>
<polygon fill="black" stroke="black" points="275.04,-104.325 278.46,-94.2966 269.533,-100.003 275.04,-104.325"/>
</g>
<!-- n3 -->
<g id="node3" class="node"><title>n3</title>
<g id="a_node3"><a xlink:title="[[C]]:&#45;1_">
<ellipse fill="none" stroke="black" cx="417" cy="-180" rx="89.2052" ry="48.1667"/>
<text text-anchor="middle" x="417" y="-198.8" font-family="Times,serif" font-size="14.00">Node3</text>
<text text-anchor="start" x="361.5" y="-183.8" font-family="Times,serif" font-size="14.00">input = {Tensor[1]}</text>
<text text-anchor="start" x="361.5" y="-168.8" font-family="Times,serif" font-size="14.00">module = nn.Tanh</text>
<text text-anchor="middle" x="417" y="-153.8" font-family="Times,serif" font-size="14.00">reverseMap = {}</text>
</a>
</g>
</g>
<!-- n3&#45;&gt;n2 -->
<g id="edge2" class="edge"><title>n3&#45;&gt;n2</title>
<path fill="none" stroke="black" d="M382.416,-135.35C374.045,-124.785 365.003,-113.373 356.321,-102.415"/>
<polygon fill="black" stroke="black" points="359.031,-100.199 350.078,-94.5347 353.544,-104.546 359.031,-100.199"/>
</g>
<!-- n4 -->
<g id="node4" class="node"><title>n4</title>
<g id="a_node4"><a xlink:title="[[C]]:&#45;1_">
<ellipse fill="none" stroke="black" cx="314" cy="-323" rx="130.162" ry="58.8803"/>
<text text-anchor="middle" x="314" y="-349.3" font-family="Times,serif" font-size="14.00">Node4</text>
<text text-anchor="start" x="230" y="-334.3" font-family="Times,serif" font-size="14.00">input = {Tensor[1],Tensor[1]}</text>
<text text-anchor="start" x="230" y="-319.3" font-family="Times,serif" font-size="14.00">module = nn.CAddTable</text>
<text text-anchor="start" x="230" y="-304.3" font-family="Times,serif" font-size="14.00">reverseMap = {}</text>
<text text-anchor="middle" x="314" y="-289.3" font-family="Times,serif" font-size="14.00">mapindex = {Node5,Node6}</text>
</a>
</g>
</g>
<!-- n4&#45;&gt;n1 -->
<g id="edge3" class="edge"><title>n4&#45;&gt;n1</title>
<path fill="none" stroke="black" d="M274.272,-267.082C266.338,-256.114 258.02,-244.616 250.141,-233.724"/>
<polygon fill="black" stroke="black" points="252.911,-231.582 244.214,-225.532 247.24,-235.685 252.911,-231.582"/>
</g>
<!-- n4&#45;&gt;n3 -->
<g id="edge4" class="edge"><title>n4&#45;&gt;n3</title>
<path fill="none" stroke="black" d="M354.117,-267.082C362.22,-255.991 370.717,-244.358 378.753,-233.357"/>
<polygon fill="black" stroke="black" points="381.722,-235.227 384.794,-225.088 376.069,-231.098 381.722,-235.227"/>
</g>
<!-- n5 -->
<g id="node5" class="node"><title>n5</title>
<g id="a_node5"><a xlink:title="[[C]]:&#45;1_">
<ellipse fill="none" stroke="black" cx="180" cy="-466" rx="124.176" ry="48.1667"/>
<text text-anchor="middle" x="180" y="-484.8" font-family="Times,serif" font-size="14.00">Node5</text>
<text text-anchor="start" x="100" y="-469.8" font-family="Times,serif" font-size="14.00">input = {Tensor[20]}</text>
<text text-anchor="start" x="100" y="-454.8" font-family="Times,serif" font-size="14.00">module = nn.Linear(20 &#45;&gt; 1)</text>
<text text-anchor="middle" x="180" y="-439.8" font-family="Times,serif" font-size="14.00">reverseMap = {}</text>
</a>
</g>
</g>
<!-- n5&#45;&gt;n4 -->
<g id="edge5" class="edge"><title>n5&#45;&gt;n4</title>
<path fill="none" stroke="black" d="M222.398,-420.387C233.193,-409.028 244.977,-396.629 256.39,-384.62"/>
<polygon fill="black" stroke="black" points="259.084,-386.865 263.436,-377.206 254.01,-382.043 259.084,-386.865"/>
</g>
<!-- n6 -->
<g id="node6" class="node"><title>n6</title>
<g id="a_node6"><a xlink:title="[[C]]:&#45;1_">
<ellipse fill="none" stroke="black" cx="448" cy="-466" rx="124.176" ry="48.1667"/>
<text text-anchor="middle" x="448" y="-484.8" font-family="Times,serif" font-size="14.00">Node6</text>
<text text-anchor="start" x="368" y="-469.8" font-family="Times,serif" font-size="14.00">input = {Tensor[10]}</text>
<text text-anchor="start" x="368" y="-454.8" font-family="Times,serif" font-size="14.00">module = nn.Linear(10 &#45;&gt; 1)</text>
<text text-anchor="middle" x="448" y="-439.8" font-family="Times,serif" font-size="14.00">reverseMap = {}</text>
</a>
</g>
</g>
<!-- n6&#45;&gt;n4 -->
<g id="edge6" class="edge"><title>n6&#45;&gt;n4</title>
<path fill="none" stroke="black" d="M405.602,-420.387C394.807,-409.028 383.023,-396.629 371.61,-384.62"/>
<polygon fill="black" stroke="black" points="373.99,-382.043 364.564,-377.206 368.916,-386.865 373.99,-382.043"/>
</g>
<!-- n7 -->
<g id="node7" class="node"><title>n7</title>
<g id="a_node7"><a xlink:title="[[C]]:&#45;1_">
<ellipse fill="none" stroke="black" cx="178" cy="-598" rx="94.1301" ry="48.1667"/>
<text text-anchor="middle" x="178" y="-616.8" font-family="Times,serif" font-size="14.00">Node7</text>
<text text-anchor="start" x="119" y="-601.8" font-family="Times,serif" font-size="14.00">input = {Tensor[20]}</text>
<text text-anchor="start" x="119" y="-586.8" font-family="Times,serif" font-size="14.00">module = nn.Tanh</text>
<text text-anchor="middle" x="178" y="-571.8" font-family="Times,serif" font-size="14.00">reverseMap = {}</text>
</a>
</g>
</g>
<!-- n7&#45;&gt;n5 -->
<g id="edge7" class="edge"><title>n7&#45;&gt;n5</title>
<path fill="none" stroke="black" d="M178.728,-549.699C178.853,-541.544 178.985,-532.987 179.114,-524.597"/>
<polygon fill="black" stroke="black" points="182.615,-524.536 179.269,-514.483 175.616,-524.428 182.615,-524.536"/>
</g>
<!-- n8 -->
<g id="node8" class="node"><title>n8</title>
<g id="a_node8"><a xlink:title="[[C]]:&#45;1_">
<ellipse fill="none" stroke="black" cx="452" cy="-598" rx="94.1301" ry="48.1667"/>
<text text-anchor="middle" x="452" y="-616.8" font-family="Times,serif" font-size="14.00">Node8</text>
<text text-anchor="start" x="393" y="-601.8" font-family="Times,serif" font-size="14.00">input = {Tensor[10]}</text>
<text text-anchor="start" x="393" y="-586.8" font-family="Times,serif" font-size="14.00">module = nn.Tanh</text>
<text text-anchor="middle" x="452" y="-571.8" font-family="Times,serif" font-size="14.00">reverseMap = {}</text>
</a>
</g>
</g>
<!-- n8&#45;&gt;n6 -->
<g id="edge8" class="edge"><title>n8&#45;&gt;n6</title>
<path fill="none" stroke="black" d="M450.545,-549.699C450.294,-541.544 450.03,-532.987 449.772,-524.597"/>
<polygon fill="black" stroke="black" points="453.267,-524.371 449.461,-514.483 446.27,-524.586 453.267,-524.371"/>
</g>
<!-- n9 -->
<g id="node9" class="node"><title>n9</title>
<g id="a_node9"><a xlink:title="[[C]]:&#45;1_">
<ellipse fill="none" stroke="black" cx="169" cy="-730" rx="128.54" ry="48.1667"/>
<text text-anchor="middle" x="169" y="-748.8" font-family="Times,serif" font-size="14.00">Node9</text>
<text text-anchor="start" x="86" y="-733.8" font-family="Times,serif" font-size="14.00">input = {Tensor[20]}</text>
<text text-anchor="start" x="86" y="-718.8" font-family="Times,serif" font-size="14.00">module = nn.Linear(20 &#45;&gt; 20)</text>
<text text-anchor="middle" x="169" y="-703.8" font-family="Times,serif" font-size="14.00">reverseMap = {}</text>
</a>
</g>
</g>
<!-- n9&#45;&gt;n7 -->
<g id="edge9" class="edge"><title>n9&#45;&gt;n7</title>
<path fill="none" stroke="black" d="M172.275,-681.699C172.839,-673.544 173.432,-664.987 174.013,-656.597"/>
<polygon fill="black" stroke="black" points="177.514,-656.701 174.713,-646.483 170.53,-656.218 177.514,-656.701"/>
</g>
<!-- n10 -->
<g id="node10" class="node"><title>n10</title>
<g id="a_node10"><a xlink:title="[[C]]:&#45;1_">
<ellipse fill="none" stroke="black" cx="454" cy="-730" rx="128.54" ry="48.1667"/>
<text text-anchor="middle" x="454" y="-748.8" font-family="Times,serif" font-size="14.00">Node10</text>
<text text-anchor="start" x="371" y="-733.8" font-family="Times,serif" font-size="14.00">input = {Tensor[10]}</text>
<text text-anchor="start" x="371" y="-718.8" font-family="Times,serif" font-size="14.00">module = nn.Linear(10 &#45;&gt; 10)</text>
<text text-anchor="middle" x="454" y="-703.8" font-family="Times,serif" font-size="14.00">reverseMap = {}</text>
</a>
</g>
</g>
<!-- n10&#45;&gt;n8 -->
<g id="edge10" class="edge"><title>n10&#45;&gt;n8</title>
<path fill="none" stroke="black" d="M453.272,-681.699C453.147,-673.544 453.015,-664.987 452.886,-656.597"/>
<polygon fill="black" stroke="black" points="456.384,-656.428 452.731,-646.483 449.385,-656.536 456.384,-656.428"/>
</g>
<!-- n11 -->
<g id="node11" class="node"><title>n11</title>
<g id="a_node11"><a xlink:title="[[C]]:&#45;1_&#45;1">
<ellipse fill="none" stroke="black" cx="149" cy="-862" rx="149.299" ry="48.1667"/>
<text text-anchor="middle" x="149" y="-880.8" font-family="Times,serif" font-size="14.00">Node11</text>
<text text-anchor="start" x="51.5" y="-865.8" font-family="Times,serif" font-size="14.00">input = {{Tensor[20],Tensor[10]}}</text>
<text text-anchor="start" x="51.5" y="-850.8" font-family="Times,serif" font-size="14.00">selectindex = 1</text>
<text text-anchor="middle" x="149" y="-835.8" font-family="Times,serif" font-size="14.00">reverseMap = {}</text>
</a>
</g>
</g>
<!-- n11&#45;&gt;n9 -->
<g id="edge11" class="edge"><title>n11&#45;&gt;n9</title>
<path fill="none" stroke="black" d="M156.277,-813.699C157.561,-805.35 158.911,-796.58 160.231,-787.998"/>
<polygon fill="black" stroke="black" points="163.701,-788.464 161.762,-778.048 156.782,-787.399 163.701,-788.464"/>
</g>
<!-- n12 -->
<g id="node12" class="node"><title>n12</title>
<g id="a_node12"><a xlink:title="[[C]]:&#45;1_&#45;2">
<ellipse fill="none" stroke="black" cx="465" cy="-862" rx="149.299" ry="48.1667"/>
<text text-anchor="middle" x="465" y="-880.8" font-family="Times,serif" font-size="14.00">Node12</text>
<text text-anchor="start" x="367.5" y="-865.8" font-family="Times,serif" font-size="14.00">input = {{Tensor[20],Tensor[10]}}</text>
<text text-anchor="start" x="367.5" y="-850.8" font-family="Times,serif" font-size="14.00">selectindex = 2</text>
<text text-anchor="middle" x="465" y="-835.8" font-family="Times,serif" font-size="14.00">reverseMap = {}</text>
</a>
</g>
</g>
<!-- n12&#45;&gt;n10 -->
<g id="edge12" class="edge"><title>n12&#45;&gt;n10</title>
<path fill="none" stroke="black" d="M460.998,-813.699C460.308,-805.544 459.584,-796.987 458.874,-788.597"/>
<polygon fill="black" stroke="black" points="462.349,-788.153 458.018,-778.483 455.374,-788.743 462.349,-788.153"/>
</g>
<!-- n13 -->
<g id="node13" class="node"><title>n13</title>
<g id="a_node13"><a xlink:title="[[C]]:&#45;1_ split at [...ddhartha/torch/install/share/lua/5.1/nngraph/gmodule.lua]:96&#45;mnode">
<ellipse fill="none" stroke="black" cx="307" cy="-994" rx="149.299" ry="48.1667"/>
<text text-anchor="middle" x="307" y="-1012.8" font-family="Times,serif" font-size="14.00">Node13</text>
<text text-anchor="start" x="209.5" y="-997.8" font-family="Times,serif" font-size="14.00">input = {{Tensor[20],Tensor[10]}}</text>
<text text-anchor="start" x="209.5" y="-982.8" font-family="Times,serif" font-size="14.00">reverseMap = {}</text>
<text text-anchor="middle" x="307" y="-967.8" font-family="Times,serif" font-size="14.00">nSplitOutputs = 2</text>
</a>
</g>
</g>
<!-- n13&#45;&gt;n11 -->
<g id="edge13" class="edge"><title>n13&#45;&gt;n11</title>
<path fill="none" stroke="black" d="M253.508,-948.988C239.61,-937.552 224.531,-925.146 210.265,-913.408"/>
<polygon fill="black" stroke="black" points="212.382,-910.618 202.437,-906.967 207.935,-916.023 212.382,-910.618"/>
</g>
<!-- n13&#45;&gt;n12 -->
<g id="edge14" class="edge"><title>n13&#45;&gt;n12</title>
<path fill="none" stroke="black" d="M360.492,-948.988C374.39,-937.552 389.469,-925.146 403.735,-913.408"/>
<polygon fill="black" stroke="black" points="406.065,-916.023 411.563,-906.967 401.618,-910.618 406.065,-916.023"/>
</g>
<!-- n14 -->
<g id="node14" class="node"><title>n14</title>
<g id="a_node14"><a xlink:title="[[C]]:&#45;1_">
<ellipse fill="none" stroke="black" cx="307" cy="-1116" rx="138.951" ry="37.4533"/>
<text text-anchor="middle" x="307" y="-1127.3" font-family="Times,serif" font-size="14.00">Node14</text>
<text text-anchor="start" x="216.5" y="-1112.3" font-family="Times,serif" font-size="14.00">input = {Tensor[20],Tensor[10]}</text>
<text text-anchor="middle" x="307" y="-1097.3" font-family="Times,serif" font-size="14.00">reverseMap = {}</text>
</a>
</g>
</g>
<!-- n14&#45;&gt;n13 -->
<g id="edge15" class="edge"><title>n14&#45;&gt;n13</title>
<path fill="none" stroke="black" d="M307,-1078.34C307,-1070.22 307,-1061.42 307,-1052.68"/>
<polygon fill="black" stroke="black" points="310.5,-1052.5 307,-1042.5 303.5,-1052.5 310.5,-1052.5"/>
</g>
</g>
</svg>
